<svg xmlns="http://www.w3.org/2000/svg" width="500" height="500" viewBox="0 0 132.292 132.292" version="1.1" id="svg945"><defs id="defs939"><style id="style1490">.cls-1{fill:#ffe9eb}.cls-3{opacity:.2}.cls-4{fill:#000051}.cls-5{fill:#492991}.cls-6{fill:#b056d6}.cls-8{fill:none}</style></defs><g id="layer1" transform="translate(0 -164.708)"><circle style="opacity:1;fill:#78a4fa;fill-opacity:1;stroke:none;stroke-width:409.61221313;stroke-linecap:butt;stroke-linejoin:miter;stroke-miterlimit:4;stroke-dasharray:none;stroke-dashoffset:204.09448242;stroke-opacity:1;paint-order:markers stroke fill" id="path1717" cx="66.146" cy="230.854" r="66.146"/><g data-name="Layer 2" id="Layer_2" transform="translate(23.621 206.003) scale(.17863)"><g data-name="Layer 2" id="Layer_2-2"><path class="cls-1" data-name="&lt;Path&gt;" id="_Path_" style="fill:#ffe9eb" d="M314.38 78.99h161.74v34.36H314.38z"/><path class="cls-1" data-name="&lt;Path&gt;" id="_Path_2" style="fill:#ffe9eb" d="M0 78.99h161.74v34.36H0z"/><path data-name="&lt;Path&gt;" id="_Path_3" style="fill:#ff8af9" d="M161.74 78.99h152.64v199.23H161.74z"/><g class="cls-3" data-name="&lt;Group&gt;" id="_Group_" style="opacity:.2"><path id="path1499" d="M304.62 141.61v8.66a3.44 3.44 0 0 1-1.05 2.48 3.37 3.37 0 0 1-2.38 1h-39.9a3.45 3.45 0 0 1-2.38-1l-2.48-2.52 1.43-.63v-8a3.42 3.42 0 0 1 3.43-3.43h22.62l2.92-1.28h14.5l2.05 2.06.19.18a3.4 3.4 0 0 1 1.05 2.48z" class="cls-4" style="fill:#000051"/></g><g class="cls-3" data-name="&lt;Group&gt;" id="_Group_2" style="opacity:.2"><path id="path1502" d="M296.19 209.82v43.35a7.24 7.24 0 0 1-7.24 7.24h-88.34a7.2 7.2 0 0 1-5-2l-.14-.13-6.86-6.87 4.74-2.57v-39a7.25 7.25 0 0 1 7.24-7.25h78.22l8.51-4.61 6.37 6.37a7.24 7.24 0 0 1 2.5 5.47z" class="cls-4" style="fill:#000051"/></g><g class="cls-3" data-name="&lt;Group&gt;" id="_Group_3" style="opacity:.2"><path id="path1505" d="m195.63 258.42-.13-.13z" class="cls-4" style="fill:#000051"/></g><g data-name="&lt;Group&gt;" id="_Group_4"><path d="M7.25 40.44h461.63a7.24 7.24 0 0 1 7.24 7.24V79H0V47.68a7.24 7.24 0 0 1 7.25-7.24z" class="cls-5" data-name="&lt;Rectangle&gt;" id="_Rectangle_" style="fill:#492991"/><path d="M378.11 16.47V7.24A7.24 7.24 0 0 0 370.87 0H105.25A7.24 7.24 0 0 0 98 7.24v33.2h9.11v-24H369v24h9.1v-24z" class="cls-5" data-name="&lt;Path&gt;" id="_Path_4" style="fill:#492991"/></g><g data-name="&lt;Group&gt;" id="_Group_5"><path class="cls-6" data-name="&lt;Path&gt;" id="_Path_5" style="fill:#b056d6" d="M98.01 40.43h280.1v38.56H98.01z"/><path class="cls-6" data-name="&lt;Path&gt;" id="_Path_6" style="fill:#b056d6" d="M.01 84.62h161.73v23.11H.01z"/><path d="M0 113.35h161.74v164.87H7.25A7.24 7.24 0 0 1 0 271Z" class="cls-6" data-name="&lt;Path&gt;" id="_Path_7" style="fill:#b056d6"/><path class="cls-6" data-name="&lt;Path&gt;" id="_Path_8" style="fill:#b056d6" d="M314.38 84.62h161.74v23.11H314.38z"/><path d="M314.38 113.35h161.74V271a7.24 7.24 0 0 1-7.24 7.24h-154.5z" class="cls-6" data-name="&lt;Path&gt;" id="_Path_9" style="fill:#b056d6"/></g><rect ry="7.24" rx="7.24" height="57.84" width="102.83" y="195.86" x="186.65" class="cls-6" data-name="&lt;Rectangle&gt;" id="_Rectangle_2" style="fill:#b056d6"/><g data-name="&lt;Group&gt;" id="_Group_6"><g data-name="&lt;Group&gt;" id="_Group_7"><path d="M88.91 55H28.39a2.81 2.81 0 0 1 0-5.62h60.52a2.81 2.81 0 0 1 0 5.62z" class="cls-1" data-name="&lt;Path&gt;" id="_Path_10" style="fill:#ffe9eb"/></g><g data-name="&lt;Group&gt;" id="_Group_8"><path d="M259.28 55h-136.1a2.81 2.81 0 0 1 0-5.62h136.1a2.81 2.81 0 1 1 0 5.62z" class="cls-1" data-name="&lt;Path&gt;" id="_Path_11" style="fill:#ffe9eb"/></g><g data-name="&lt;Group&gt;" id="_Group_9"><path d="M283.85 55H269a2.81 2.81 0 0 1 0-5.62h14.86a2.81 2.81 0 0 1 0 5.62z" class="cls-1" data-name="&lt;Path&gt;" id="_Path_12" style="fill:#ffe9eb"/></g><g data-name="&lt;Group&gt;" id="_Group_10"><path d="M359.37 55h-62.52a2.81 2.81 0 0 1 0-5.62h62.52a2.81 2.81 0 0 1 0 5.62z" class="cls-1" data-name="&lt;Path&gt;" id="_Path_13" style="fill:#ffe9eb"/></g><g data-name="&lt;Group&gt;" id="_Group_11"><path d="M445.33 55h-55.44a2.81 2.81 0 0 1 0-5.62h55.44a2.81 2.81 0 1 1 0 5.62z" class="cls-1" data-name="&lt;Path&gt;" id="_Path_14" style="fill:#ffe9eb"/></g></g><g data-name="&lt;Group&gt;" id="_Group_12"><g data-name="&lt;Group&gt;" id="_Group_13"><path d="M292.77 169.64H183.35a2.81 2.81 0 0 1 0-5.62h109.42a2.81 2.81 0 0 1 0 5.62z" class="cls-1" data-name="&lt;Path&gt;" id="_Path_15" style="fill:#ffe9eb"/></g><g data-name="&lt;Group&gt;" id="_Group_14"><path d="M221.93 182.49H190.6a2.81 2.81 0 1 1 0-5.62h31.33a2.81 2.81 0 0 1 0 5.62z" class="cls-1" data-name="&lt;Path&gt;" id="_Path_16" style="fill:#ffe9eb"/></g><g data-name="&lt;Group&gt;" id="_Group_15"><path d="M243.69 182.49h-9.11a2.81 2.81 0 1 1 0-5.62h9.11a2.81 2.81 0 0 1 0 5.62z" class="cls-1" data-name="&lt;Path&gt;" id="_Path_17" style="fill:#ffe9eb"/></g><g data-name="&lt;Group&gt;" id="_Group_16"><path d="M286.34 182.49h-27.86a2.81 2.81 0 0 1 0-5.62h27.86a2.81 2.81 0 1 1 0 5.62z" class="cls-1" data-name="&lt;Path&gt;" id="_Path_18" style="fill:#ffe9eb"/></g></g><g data-name="&lt;Group&gt;" id="_Group_17"><path id="polygon1538" class="cls-5" style="fill:#492991" d="M272.63 253.7h-69.14l13.94-13.93h41.27z"/></g><g data-name="&lt;Group&gt;" id="_Group_18"><circle id="circle1541" r="71.77" cy="194.38" cx="80.87" class="cls-5" style="fill:#492991"/></g><g class="cls-3" data-name="&lt;Group&gt;" id="_Group_19" style="opacity:.2"><path id="path1544" d="M131.62 143.64A71.764 71.764 0 0 1 30.13 245.13q-2.13-2.12-4-4.38a71.76 71.76 0 0 0 101.11-101.13c1.51 1.26 2.97 2.61 4.38 4.02z" class="cls-4" style="fill:#000051"/></g><circle r="71.77" cy="194.38" cx="395.25" class="cls-5" data-name="&lt;Path&gt;" id="_Path_19" style="fill:#492991"/><g data-name="&lt;Group&gt;" id="_Group_20"><circle id="circle1548" r="9.71" cy="220.06" cx="210.98" class="cls-5" style="fill:#492991"/></g><g data-name="&lt;Group&gt;" id="_Group_21"><circle id="circle1551" r="9.71" cy="220.06" cx="264.67" class="cls-5" style="fill:#492991"/></g><g data-name="&lt;Group&gt;" id="_Group_22"><circle id="circle1554" r="9.71" cy="110.54" cx="183.35" class="cls-5" style="fill:#492991"/></g><g data-name="&lt;Group&gt;" id="_Group_23"><circle id="circle1557" r="9.71" cy="110.54" cx="210.71" class="cls-5" style="fill:#492991"/></g><g data-name="&lt;Group&gt;" id="_Group_24"><circle id="circle1560" r="9.71" cy="110.54" cx="238.06" class="cls-5" style="fill:#492991"/></g><g data-name="&lt;Group&gt;" id="_Group_25"><circle id="circle1563" r="9.71" cy="110.54" cx="265.42" class="cls-5" style="fill:#492991"/></g><g data-name="&lt;Group&gt;" id="_Group_26"><circle id="circle1566" r="9.71" cy="110.54" cx="292.77" class="cls-5" style="fill:#492991"/></g><g class="cls-3" data-name="&lt;Group&gt;" id="_Group_27" style="opacity:.2"><path id="path1569" d="M190.22 103.68a9.71 9.71 0 0 1-13.73 13.73 10.12 10.12 0 0 1-.92-1.06 9.72 9.72 0 0 0 13.59-13.59 10.12 10.12 0 0 1 1.06.92z" class="cls-4" style="fill:#000051"/></g><g class="cls-3" data-name="&lt;Group&gt;" id="_Group_28" style="opacity:.2"><path id="path1572" d="M218.32 213.67a9.71 9.71 0 0 1-13.73 13.72 9.19 9.19 0 0 1-.92-1.06 9.71 9.71 0 0 0 13.59-13.58 9.07 9.07 0 0 1 1.06.92z" class="cls-4" style="fill:#000051"/></g><g class="cls-3" data-name="&lt;Group&gt;" id="_Group_29" style="opacity:.2"><path id="path1575" d="M272 213.67a9.71 9.71 0 0 1-13.73 13.72 9.19 9.19 0 0 1-.92-1.06A9.71 9.71 0 0 0 271 212.75a9.07 9.07 0 0 1 1 .92z" class="cls-4" style="fill:#000051"/></g><g class="cls-3" data-name="&lt;Group&gt;" id="_Group_30" style="opacity:.2"><path id="path1578" d="M217.58 103.68a9.71 9.71 0 0 1-13.73 13.73 8.32 8.32 0 0 1-.92-1.06 9.72 9.72 0 0 0 13.59-13.59 10.12 10.12 0 0 1 1.06.92z" class="cls-4" style="fill:#000051"/></g><g class="cls-3" data-name="&lt;Group&gt;" id="_Group_31" style="opacity:.2"><path id="path1581" d="M244.93 103.68a9.71 9.71 0 0 1-13.73 13.73 10.12 10.12 0 0 1-.92-1.06 9.72 9.72 0 0 0 13.59-13.59 10.12 10.12 0 0 1 1.06.92z" class="cls-4" style="fill:#000051"/></g><g class="cls-3" data-name="&lt;Group&gt;" id="_Group_32" style="opacity:.2"><path id="path1584" d="M272.28 103.68a9.71 9.71 0 0 1-13.73 13.73 10.12 10.12 0 0 1-.92-1.06 9.72 9.72 0 0 0 13.59-13.59 10.12 10.12 0 0 1 1.06.92z" class="cls-4" style="fill:#000051"/></g><g class="cls-3" data-name="&lt;Group&gt;" id="_Group_33" style="opacity:.2"><path id="path1587" d="M299.64 103.68a9.71 9.71 0 0 1-13.73 13.73 8.32 8.32 0 0 1-.92-1.06 9.72 9.72 0 0 0 13.59-13.59 10.12 10.12 0 0 1 1.06.92z" class="cls-4" style="fill:#000051"/></g><g data-name="&lt;Rectangle&gt;" id="_Rectangle_3"><rect id="rect1590" ry="3.44" rx="3.44" height="15.53" width="46.77" y="136.03" x="255.71" class="cls-5" style="fill:#492991"/></g><g class="cls-3" data-name="&lt;Group&gt;" id="_Group_34" style="opacity:.2"><path id="path1593" d="M222.56 141.61v8.66a3.44 3.44 0 0 1-1.05 2.48 3.37 3.37 0 0 1-2.38 1h-39.9a3.45 3.45 0 0 1-2.38-1l-2.48-2.52 1.43-.63v-8a3.42 3.42 0 0 1 3.43-3.43h22.62l2.92-1.28h14.5l2 2.06.19.18a3.4 3.4 0 0 1 1.1 2.48z" class="cls-4" style="fill:#000051"/></g><g data-name="&lt;Rectangle&gt;" id="_Rectangle_4"><rect id="rect1596" ry="3.44" rx="3.44" height="15.53" width="46.77" y="136.03" x="173.65" class="cls-5" style="fill:#492991"/></g><g data-name="&lt;Group&gt;" id="_Group_35"><g class="cls-3" data-name="&lt;Group&gt;" id="_Group_36" style="opacity:.2"><path id="path1599" d="M250.59 141.61v8.66a3.44 3.44 0 0 1-1.05 2.48 3.37 3.37 0 0 1-2.38 1h-13.9a3.45 3.45 0 0 1-2.38-1l-2.48-2.52 1.43-.63v-8a3.42 3.42 0 0 1 3.43-3.43h9.62l2.92-1.28h1.5l2 2.06.19.18a3.4 3.4 0 0 1 1.1 2.48z" class="cls-5" style="fill:#492991"/></g><g data-name="&lt;Rectangle&gt;" id="_Rectangle_5"><rect id="rect1602" ry="3.44" rx="3.44" height="15.53" width="20.77" y="136.03" x="227.68" class="cls-5" style="fill:#492991"/></g></g><g data-name="&lt;Group&gt;" id="_Group_37"><g data-name="&lt;Group&gt;" id="_Group_38"><path data-name="&lt;Path&gt;" id="_Path_20" style="fill:#9fa6ff" d="M0 78.99h.01v5.63H0z"/></g></g><g class="cls-3" data-name="&lt;Group&gt;" id="_Group_39" style="opacity:.2"><path id="path1609" d="M446 143.64a71.77 71.77 0 0 1-101.5 101.49q-2.12-2.12-4-4.38a71.76 71.76 0 0 0 101.12-101.13c1.5 1.26 2.96 2.61 4.38 4.02z" class="cls-4" style="fill:#000051"/></g><path class="cls-8" data-name="&lt;Path&gt;" id="_Path_21" style="fill:none" d="M161.74 122.62v-9.27"/><path class="cls-8" data-name="&lt;Path&gt;" id="_Path_22" style="fill:none" d="M314.38 120.24v-6.89"/></g></g></g></svg>