<svg xmlns="http://www.w3.org/2000/svg" width="1920" height="1080" viewBox="0 0 508 285.75" version="1.1" id="svg8"><defs id="defs2"><style id="style2">.cls-2{fill:#494951}</style></defs><g id="layer1"><g id="g59" transform="translate(643.72 -625.563) scale(.26458)"><path style="opacity:.05;fill:#78a4fa;fill-opacity:1;stroke-width:.352218" id="path950" d="m-1539.642 2670.183 78.124-26.286a12.008 12.008 0 0 0 4.11-20.388l-61.816-54.504a12.012 12.012 0 0 0-19.722 6.628l-16.297 80.797a12.008 12.008 0 0 0 15.613 13.742l78.124-26.285a12.008 12.008 0 0 0 4.111-20.388l-61.817-54.504a12.012 12.012 0 0 0-19.734 6.638l-16.297 80.797a12.008 12.008 0 0 0 15.6 13.753z" class="cls-2"/><path style="opacity:.05;fill:#78a4fa;fill-opacity:1;stroke-width:.352218" id="path952" d="m-1602.745 2557.516-52.701 17.74a8.098 8.098 0 0 0-2.772 13.748l41.688 36.764a8.098 8.098 0 0 0 13.294-4.473l11.01-54.501a8.098 8.098 0 0 0-10.519-9.278l-52.701 17.74a8.098 8.098 0 0 0-2.772 13.748l41.688 36.764a8.098 8.098 0 0 0 13.294-4.473l11.01-54.501a8.098 8.098 0 0 0-10.519-9.278z" class="cls-2"/><path style="opacity:.05;fill:#78a4fa;fill-opacity:1;stroke-width:.352218" id="path954" d="m-1722.098 2496.056-11.591 3.898a1.783 1.783 0 0 0-.624 3.014l9.184 8.074a1.783 1.783 0 0 0 2.929-.985l2.419-11.988a1.783 1.783 0 0 0-2.314-2.04l-11.592 3.898a1.783 1.783 0 0 0-.624 3.014l9.185 8.074a1.783 1.783 0 0 0 2.928-.985l2.42-11.988a1.783 1.783 0 0 0-2.32-1.986z" class="cls-2"/><path style="opacity:.05;fill:#78a4fa;fill-opacity:1;stroke-width:.352218" id="path956" d="m-1663.648 2524.27 29.457-9.912a4.527 4.527 45 0 0 1.533-7.672l-23.311-20.554a4.527 4.527 45 0 0-7.433 2.5l-6.146 30.466a4.527 4.527 45 0 0 5.882 5.187l29.457-9.911a4.527 4.527 45 0 0 1.55-7.688l-23.31-20.554a4.527 4.527 45 0 0-7.433 2.5l-6.146 30.466a4.527 4.527 45 0 0 5.9 5.172z" class="cls-2"/><path style="opacity:.05;fill:#78a4fa;fill-opacity:1;stroke-width:.59485" id="path15-8" d="m-1967.38 3130.028-14.578 118.753a15.263 15.263 0 0 1-13.204 13.279l-15.558 2.155a7.893 7.893 0 0 1-8.843-8.791l1.483-12.051a13.394 13.394 0 0 1 11.327-11.645l8.368-1.892a13.394 13.394 0 0 0 11.317-11.62l6.023-48.977a13.4 13.4 0 0 0-15.247-14.889l-39.314 6.614a13.407 13.407 0 0 0-11.351 11.627l-10.755 87.196a15.27 15.27 0 0 1-13.169 13.272l-15.528 2.134a7.893 7.893 0 0 1-8.837-8.79l1.478-12.052a13.407 13.407 0 0 1 11.323-11.62l8.36-1.887a13.4 13.4 0 0 0 11.322-11.619l10.8-87.799a13.387 13.387 0 0 1 11.446-11.636l57.095-7.568 7.098-.984a7.893 7.893 0 0 1 8.943 8.79z" class="cls-2"/><path style="opacity:.05;fill:#78a4fa;fill-opacity:1;stroke-width:.59485" id="path81" d="m-1818.146 2652.25 8.69 119.328a15.263 15.263 0 0 1-10.383 15.584l-14.846 5.127a7.893 7.893 0 0 1-10.378-6.913l-.878-12.11a13.394 13.394 0 0 1 8.858-13.618l7.843-3.477a13.394 13.394 0 0 0 8.853-13.591l-3.573-49.216a13.4 13.4 0 0 0-17.842-11.655l-37.289 14.1a13.407 13.407 0 0 0-8.885 13.605l6.33 87.628a15.27 15.27 0 0 1-10.35 15.571l-14.82 5.1a7.893 7.893 0 0 1-10.372-6.913l-.884-12.11a13.407 13.407 0 0 1 8.86-13.591l7.836-3.47a13.4 13.4 0 0 0 8.859-13.592l-6.404-88.228a13.387 13.387 0 0 1 8.976-13.633l54.55-18.48 6.772-2.339a7.893 7.893 0 0 1 10.477 6.893z" class="cls-2"/><path style="opacity:.05;fill:#78a4fa;fill-opacity:1;stroke-width:.59485" id="path83" d="m-1455.334 3026.545-5.864 119.501a15.263 15.263 0 0 1-12.198 14.208l-15.36 3.286a7.893 7.893 0 0 1-9.461-8.122l.598-12.127a13.394 13.394 0 0 1 10.447-12.441l8.207-2.5a13.394 13.394 0 0 0 10.438-12.415l2.43-49.286a13.4 13.4 0 0 0-16.294-13.734l-38.726 9.467a13.407 13.407 0 0 0-10.471 12.425l-4.357 87.749a15.27 15.27 0 0 1-12.165 14.198l-15.33 3.263a7.893 7.893 0 0 1-9.455-8.122l.592-12.127a13.407 13.407 0 0 1 10.444-12.415l8.2-2.493a13.4 13.4 0 0 0 10.444-12.415l4.358-88.353a13.387 13.387 0 0 1 10.565-12.442l56.39-11.718 7.007-1.5a7.893 7.893 0 0 1 9.561 8.113z" class="cls-2"/><path style="opacity:.05;fill:#78a4fa;fill-opacity:1;stroke-width:.59485" id="path85" d="m-1217.7 2581.093-7.946 119.38a15.263 15.263 0 0 1-12.444 13.994l-15.414 3.017a7.893 7.893 0 0 1-9.32-8.285l.81-12.115a13.394 13.394 0 0 1 10.663-12.257l8.249-2.356a13.394 13.394 0 0 0 10.652-12.232l3.289-49.236a13.4 13.4 0 0 0-16.053-14.016l-38.884 8.79a13.407 13.407 0 0 0-10.687 12.242l-5.885 87.66a15.27 15.27 0 0 1-12.41 13.984l-15.385 2.995a7.893 7.893 0 0 1-9.312-8.285l.804-12.116a13.407 13.407 0 0 1 10.659-12.23l8.242-2.35a13.4 13.4 0 0 0 10.658-12.232l5.897-88.264a13.387 13.387 0 0 1 10.78-12.255l56.586-10.734 7.032-1.378a7.893 7.893 0 0 1 9.418 8.28z" class="cls-2"/><path style="opacity:.05;fill:#78a4fa;fill-opacity:1;stroke-width:.59485" id="path87" d="m-963.112 3031.898 6.84 119.449a15.263 15.263 0 0 1-10.623 15.421l-14.924 4.896a7.893 7.893 0 0 1-10.27-7.073l-.69-12.122a13.394 13.394 0 0 1 9.068-13.478l7.896-3.355a13.394 13.394 0 0 0 9.062-13.453l-2.81-49.266a13.4 13.4 0 0 0-17.658-11.929l-37.503 13.52a13.407 13.407 0 0 0-9.096 13.466l4.973 87.716a15.27 15.27 0 0 1-10.59 15.408l-14.898 4.87a7.893 7.893 0 0 1-10.264-7.073l-.696-12.122a13.407 13.407 0 0 1 9.069-13.453l7.889-3.348a13.4 13.4 0 0 0 9.068-13.453l-5.035-88.317a13.387 13.387 0 0 1 9.186-13.491l54.83-17.632 6.808-2.234a7.893 7.893 0 0 1 10.368 7.053z" class="cls-2"/><path style="opacity:.05;fill:#78a4fa;fill-opacity:1;stroke-width:.59485" id="path89" d="m-753.72 2707.28-13.635 118.864a15.263 15.263 0 0 1-13.098 13.384l-15.54 2.278a7.893 7.893 0 0 1-8.914-8.721l1.388-12.062a13.394 13.394 0 0 1 11.235-11.735l8.352-1.958a13.394 13.394 0 0 0 11.224-11.71l5.635-49.023a13.4 13.4 0 0 0-15.365-14.767l-39.26 6.925a13.407 13.407 0 0 0-11.258 11.717l-10.063 87.278a15.27 15.27 0 0 1-13.064 13.377l-15.51 2.257a7.893 7.893 0 0 1-8.906-8.72l1.381-12.063a13.407 13.407 0 0 1 11.23-11.709l8.346-1.954a13.4 13.4 0 0 0 11.23-11.708l10.103-87.882a13.387 13.387 0 0 1 11.353-11.727l57.034-8.02 7.089-1.04a7.893 7.893 0 0 1 9.013 8.718z" class="cls-2"/><path style="opacity:.05;fill:none;stroke:#78a4fa;stroke-width:13.0418px;stroke-linecap:round;stroke-linejoin:round;stroke-dasharray:65.2092,130.41800000000000637,97.8136999999999972,97.8136999999999972,78.25100000000000477;stroke-opacity:1" id="path924" d="M-2875.407 2969.374c279.808-249.784 721.552-235.055 981.038 55.62 259.487 290.674 884.817 287.955 1135.29 64.364 250.475-223.591 597.644-169.352 597.644-169.352"/><circle style="opacity:.05;fill:#78a4fa;fill-opacity:1;stroke-width:.33233" id="circle936" r="39.095" cy="3013.42" cx="-664.954" class="cls-2" transform="rotate(7.224)"/><circle style="opacity:.05;fill:#78a4fa;fill-opacity:1;stroke-width:.33233" id="circle938" r="21.049" cy="3016.345" cx="-584.134" class="cls-2" transform="rotate(7.224)"/><circle style="opacity:.05;fill:#78a4fa;fill-opacity:1;stroke-width:.33233" id="circle940" r="11.404" cy="3054.814" cx="-546.09" class="cls-2" transform="rotate(7.224)"/><circle style="opacity:.05;fill:#78a4fa;fill-opacity:1;stroke-width:.33233" id="circle942" r="5.133" cy="3056.46" cx="-502.619" class="cls-2" transform="rotate(7.224)"/><path style="opacity:.05;fill:#78a4fa;fill-opacity:1;stroke-width:.571881" id="path964" d="M-747.838 3335.2a24.5 24.5 0 0 1-35.969-25.444 1.546 1.546 0 0 0-1.174-1.775l-46.826-10.628a1.553 1.553 0 0 0-1.86 1.207 75.579 75.579 0 0 0 112.977 79.943 1.553 1.553 0 0 0 .516-2.153l-25.596-40.62a1.546 1.546 0 0 0-2.068-.53zm-11.803-97.03a75.18 75.18 0 0 0-38.944 10.798 1.546 1.546 0 0 0-.509 2.153l25.596 40.614a1.54 1.54 0 0 0 2.042.542 24.5 24.5 0 0 1 36.308 21.458 24.59 24.59 0 0 1-.326 4.006 1.54 1.54 0 0 0 1.187 1.749l46.82 10.622a1.553 1.553 0 0 0 1.865-1.2 75.624 75.624 0 0 0-74.039-90.742zm-54.544 25.562 35.382 32.44a1.553 1.553 0 0 0 2.12 0 1.546 1.546 0 0 0 .099-2.12l-31.233-36.498a1.553 1.553 0 0 0-2.212-.144q-2.198 1.958-4.253 4.11a1.546 1.546 0 0 0 .097 2.212zm71.612 67.6a1.546 1.546 0 0 0-.098 2.12l31.24 36.446a1.553 1.553 0 0 0 2.211.143 70.111 70.111 0 0 0 4.247-4.11 1.546 1.546 0 0 0-.071-2.212l-35.382-32.44a1.546 1.546 0 0 0-2.147.053z" class="cls-2"/><path style="opacity:.05;fill:#78a4fa;fill-opacity:1;stroke-width:.411336" id="path966" d="M-1715.051 2986.392a17.621 17.621 0 0 1-30.432 8.842 1.112 1.112 0 0 0-1.525-.134l-26.958 21.588a1.117 1.117 0 0 0-.154 1.587 54.361 54.361 0 0 0 95.598-27.76 1.117 1.117 0 0 0-.98-1.255l-34.325-3.795a1.112 1.112 0 0 0-1.224.927zm-59.89-36.827a54.075 54.075 0 0 0-11.37 26.753 1.112 1.112 0 0 0 .984 1.25l34.321 3.792a1.108 1.108 0 0 0 1.22-.907 17.621 17.621 0 0 1 28.34-10.818 17.687 17.687 0 0 1 2.109 1.978 1.108 1.108 0 0 0 1.516.116l26.951-21.588a1.117 1.117 0 0 0 .16-1.588 54.394 54.394 0 0 0-84.23 1.012zm-10.05 42.145 34.106-5.378a1.117 1.117 0 0 0 .95-1.193 1.112 1.112 0 0 0-1.15-1.005l-34.53 1.225a1.117 1.117 0 0 0-1.07 1.18q.116 2.114.406 4.235a1.112 1.112 0 0 0 1.289.936zm70.121-10.014a1.112 1.112 0 0 0 1.15 1.005l34.503-1.252a1.117 1.117 0 0 0 1.072-1.18 50.609 50.609 0 0 0-.41-4.232 1.112 1.112 0 0 0-1.277-.95l-34.105 5.378a1.112 1.112 0 0 0-.933 1.23z" class="cls-2"/><path style="opacity:.05;fill:#78a4fa;fill-opacity:1;stroke-width:.578065" id="path968" d="M-2167.463 2611.762a24.764 24.764 0 0 1 4.039-44.352 1.563 1.563 0 0 0 .957-1.926l-14.421-46.344a1.57 1.57 0 0 0-1.998-1.016 76.396 76.396 0 0 0-12.704 139.32 1.57 1.57 0 0 0 2.144-.64l22.568-42.965a1.563 1.563 0 0 0-.585-2.077zm78.899-59.473a75.994 75.994 0 0 0-29.172-28.597 1.563 1.563 0 0 0-2.141.645l-22.563 42.962a1.556 1.556 0 0 0 .561 2.06 24.764 24.764 0 0 1-.38 42.63 24.856 24.856 0 0 1-3.669 1.744 1.556 1.556 0 0 0-.928 1.925l14.424 46.335a1.57 1.57 0 0 0 1.995 1.024 76.442 76.442 0 0 0 41.873-110.728zm-49.989-34.764-10.454 47.381a1.57 1.57 0 0 0 1.074 1.855 1.563 1.563 0 0 0 1.905-.988l16.106-45.807a1.57 1.57 0 0 0-.995-2.007q-2.826-.932-5.75-1.64a1.563 1.563 0 0 0-1.886 1.206zm-22.859 96.883a1.563 1.563 0 0 0-1.904.989l-16.057 45.786a1.57 1.57 0 0 0 .995 2.008 71.21 71.21 0 0 0 5.747 1.633 1.563 1.563 0 0 0 1.898-1.183l10.454-47.382a1.563 1.563 0 0 0-1.132-1.851z" class="cls-2"/><path style="opacity:.05;fill:#78a4fa;fill-opacity:1;stroke-width:.494;stroke-miterlimit:4;stroke-dasharray:none" id="path994" d="m-1768.748 3371.826 42.713-8.628a6.347 6.347 0 0 0 3.476-10.404l-28.826-32.675a6.347 6.347 0 0 0-10.778 2.176l-13.887 41.303a6.347 6.347 0 0 0 7.274 8.246l42.713-8.628a6.347 6.347 0 0 0 3.504-10.422l-28.826-32.675a6.347 6.347 0 0 0-10.778 2.176l-13.887 41.303a6.347 6.347 0 0 0 7.302 8.228z" class="cls-2"/><path style="opacity:.05;fill:#78a4fa;fill-opacity:1;stroke-width:.494;stroke-miterlimit:4;stroke-dasharray:none" id="path996" d="m-1874.535 3301.758 44.768 54.757a10.302 10.302 0 0 0 17.566-2.9l25.037-66.145a10.302 10.302 0 0 0-11.295-13.817l-69.804 11.387a10.302 10.302 0 0 0-6.32 16.69l44.768 54.758a10.302 10.302 0 0 0 17.614-2.873l25.037-66.145a10.302 10.302 0 0 0-11.295-13.817l-69.804 11.387a10.302 10.302 0 0 0-6.272 16.718z" class="cls-2"/><path style="opacity:.05;fill:#78a4fa;fill-opacity:1;stroke-width:.327273" id="path1002" d="M-1012.224 2647.428a14.02 14.02 0 0 1 14.753-20.447.885.885 0 0 0 1.022-.663l6.332-26.739a.889.889 0 0 0-.68-1.07 43.252 43.252 0 0 0-46.352 64.224.889.889 0 0 0 1.229.306l23.382-14.43a.885.885 0 0 0 .314-1.18zm55.589-6.235a43.024 43.024 0 0 0-5.971-22.344.885.885 0 0 0-1.23-.303l-23.378 14.43a.881.881 0 0 0-.32 1.166 14.02 14.02 0 0 1-12.475 20.663 14.073 14.073 0 0 1-2.29-.208.881.881 0 0 0-1.007.67l-6.329 26.736a.889.889 0 0 0 .677 1.074 43.278 43.278 0 0 0 52.323-41.884zm-14.337-31.35-18.753 20.074a.889.889 0 0 0-.01 1.214.885.885 0 0 0 1.212.068l21.053-17.678a.889.889 0 0 0 .094-1.265q-1.109-1.269-2.33-2.456a.885.885 0 0 0-1.266.044zm-39.067 40.62a.885.885 0 0 0-1.212-.069l-21.023 17.682a.889.889 0 0 0-.094 1.265 39.914 39.914 0 0 0 2.33 2.452.885.885 0 0 0 1.265-.029l18.753-20.074a.885.885 0 0 0-.018-1.228z" class="cls-2"/><circle style="opacity:.05;fill:#78a4fa;fill-opacity:1;stroke-width:.550327" id="circle1004" r="34.856" cy="2973.161" cx="-2239.589" class="cls-2"/><circle style="opacity:.05;fill:#78a4fa;fill-opacity:1;stroke-width:.550327" id="circle1006" r="18.885" cy="3036.866" cx="-2176.59" class="cls-2"/><circle style="opacity:.05;fill:#78a4fa;fill-opacity:1;stroke-width:.550327" id="circle1008" r="8.5" cy="3039.592" cx="-2104.604" class="cls-2"/><path style="opacity:.05;fill:#78a4fa;fill-opacity:1;stroke-width:.494;stroke-miterlimit:4;stroke-dasharray:none" id="path994-8" d="m-681.055 2512.517 15.767-40.623a6.347 6.347 0 0 0-6.887-8.538l-43.062 6.657a6.347 6.347 0 0 0-3.98 10.25l27.296 33.966a6.347 6.347 0 0 0 10.866-1.679l15.767-40.623a6.347 6.347 0 0 0-6.888-8.57l-43.061 6.656a6.347 6.347 0 0 0-3.98 10.25l27.296 33.966a6.347 6.347 0 0 0 10.866-1.712z" class="cls-2"/><path style="opacity:.05;fill:#78a4fa;fill-opacity:1;stroke-width:.494;stroke-miterlimit:4;stroke-dasharray:none" id="path996-8" d="m-797.107 2563.822 70.255-8.174a10.302 10.302 0 0 0 7.03-16.357l-42.204-56.753a10.302 10.302 0 0 0-17.727 2.061l-28.051 64.926a10.302 10.302 0 0 0 10.649 14.323l70.254-8.174a10.302 10.302 0 0 0 7.079-16.383l-42.204-56.753a10.302 10.302 0 0 0-17.727 2.061l-28.051 64.927a10.302 10.302 0 0 0 10.697 14.296z" class="cls-2"/><circle style="opacity:.05;fill:#78a4fa;fill-opacity:1;stroke-width:.33233" id="circle938-2" r="21.049" cy="-1456.864" cx="2277.699" class="cls-2" transform="rotate(146.788)"/><circle style="opacity:.05;fill:#78a4fa;fill-opacity:1;stroke-width:.33233" id="circle940-8" r="11.404" cy="-1418.395" cx="2315.743" class="cls-2" transform="rotate(146.788)"/><circle style="opacity:.05;fill:#78a4fa;fill-opacity:1;stroke-width:.33233" id="circle942-8" r="5.133" cy="-1416.748" cx="2359.214" class="cls-2" transform="rotate(146.788)"/><path style="opacity:.05;fill:#78a4fa;fill-opacity:1;stroke-width:.432955" id="path966-6" d="M-2285.79 3305.237a18.548 18.548 0 0 1-7.283-32.552 1.17 1.17 0 0 0 .241-1.593l-20.902-29.742a1.176 1.176 0 0 0-1.657-.266 57.219 57.219 0 0 0 22.863 102.255 1.176 1.176 0 0 0 1.383-.948l6.248-35.808a1.17 1.17 0 0 0-.893-1.346zm42.632-60.487a56.917 56.917 0 0 0-27.354-13.707 1.17 1.17 0 0 0-1.378.95l-6.245 35.805a1.166 1.166 0 0 0 .872 1.34 18.548 18.548 0 0 1 9.497 30.486 18.617 18.617 0 0 1-2.217 2.084 1.166 1.166 0 0 0-.22 1.585l20.901 29.734a1.176 1.176 0 0 0 1.658.274 57.253 57.253 0 0 0 4.486-88.551zm-43.61-13.335 3.402 36.182a1.176 1.176 0 0 0 1.19 1.076 1.17 1.17 0 0 0 1.132-1.14l.99-36.354a1.176 1.176 0 0 0-1.17-1.204q-2.229-.017-4.476.149a1.17 1.17 0 0 0-1.068 1.291zm5.899 74.322a1.17 1.17 0 0 0-1.131 1.141l-.959 36.328a1.176 1.176 0 0 0 1.17 1.203 53.466 53.466 0 0 0 4.472-.152 1.17 1.17 0 0 0 1.082-1.278l-3.402-36.182a1.17 1.17 0 0 0-1.232-1.06z" class="cls-2"/><path style="opacity:.05;fill:#78a4fa;fill-opacity:1;stroke-width:.352218" id="path954-7" d="m-1240.99 3347.577 11.202-4.907a1.783 1.783 0 0 0 .356-3.056l-9.862-7.232a1.783 1.783 0 0 0-2.83 1.24l-1.351 12.154a1.783 1.783 0 0 0 2.485 1.828l11.202-4.906a1.783 1.783 0 0 0 .356-3.057l-9.862-7.232a1.783 1.783 0 0 0-2.83 1.24l-1.351 12.154a1.783 1.783 0 0 0 2.485 1.774z" class="cls-2"/><path style="opacity:.05;fill:#78a4fa;fill-opacity:1;stroke-width:.352218" id="path956-4" d="m-1301.702 3324.632-28.468 12.472a4.527 4.527 0 0 0-.849 7.778l25.034 18.416a4.527 4.527 0 0 0 7.183-3.147l3.434-30.888a4.527 4.527 0 0 0-6.317-4.648l-28.468 12.472a4.527 4.527 0 0 0-.866 7.795l25.034 18.416a4.527 4.527 0 0 0 7.183-3.147l3.434-30.888a4.527 4.527 0 0 0-6.334-4.631z" class="cls-2"/></g></g></svg>